<mxfile host="app.diagrams.net" agent="Mozilla/5.0 (Windows NT 10.0; Win64; x64) AppleWebKit/537.36 (KHTML, like Gecko) Chrome/134.0.0.0 Safari/537.36 Edg/134.0.0.0" version="26.1.1">
  <diagram name="Page-1" id="c4acf3e9-155e-7222-9cf6-157b1a14988f">
    <mxGraphModel dx="1545" dy="709" grid="1" gridSize="10" guides="1" tooltips="1" connect="1" arrows="1" fold="1" page="1" pageScale="1" pageWidth="1400" pageHeight="850" background="none" math="0" shadow="0">
      <root>
        <mxCell id="0" />
        <mxCell id="1" parent="0" />
        <mxCell id="jkxrizxsw4gYprJsLhwS-6" value="" style="endArrow=none;html=1;rounded=0;" edge="1" parent="1">
          <mxGeometry width="50" height="50" relative="1" as="geometry">
            <mxPoint x="200" y="520" as="sourcePoint" />
            <mxPoint x="1040" y="520" as="targetPoint" />
          </mxGeometry>
        </mxCell>
        <mxCell id="jkxrizxsw4gYprJsLhwS-7" value="" style="endArrow=none;html=1;rounded=0;" edge="1" parent="1">
          <mxGeometry width="50" height="50" relative="1" as="geometry">
            <mxPoint x="200" y="520" as="sourcePoint" />
            <mxPoint x="200" y="120" as="targetPoint" />
          </mxGeometry>
        </mxCell>
        <mxCell id="jkxrizxsw4gYprJsLhwS-8" value="&lt;div&gt;sensor_task&lt;/div&gt;" style="text;whiteSpace=wrap;html=1;" vertex="1" parent="1">
          <mxGeometry x="120" y="120" width="100" height="40" as="geometry" />
        </mxCell>
        <mxCell id="jkxrizxsw4gYprJsLhwS-9" value="&lt;div&gt;button_task&lt;/div&gt;" style="text;whiteSpace=wrap;html=1;" vertex="1" parent="1">
          <mxGeometry x="120" y="200" width="100" height="40" as="geometry" />
        </mxCell>
        <mxCell id="jkxrizxsw4gYprJsLhwS-10" value="&lt;div&gt;display_and_control_task&lt;/div&gt;" style="text;whiteSpace=wrap;html=1;" vertex="1" parent="1">
          <mxGeometry x="50" y="280" width="170" height="40" as="geometry" />
        </mxCell>
        <mxCell id="jkxrizxsw4gYprJsLhwS-11" value="&lt;div&gt;sensorQueue&lt;/div&gt;" style="text;whiteSpace=wrap;html=1;" vertex="1" parent="1">
          <mxGeometry x="110" y="360" width="110" height="40" as="geometry" />
        </mxCell>
        <mxCell id="jkxrizxsw4gYprJsLhwS-12" value="&lt;div&gt;buttonQueue&lt;/div&gt;" style="text;whiteSpace=wrap;html=1;" vertex="1" parent="1">
          <mxGeometry x="115" y="440" width="100" height="40" as="geometry" />
        </mxCell>
        <mxCell id="jkxrizxsw4gYprJsLhwS-13" value="0s" style="text;html=1;align=center;verticalAlign=middle;resizable=0;points=[];autosize=1;strokeColor=none;fillColor=none;" vertex="1" parent="1">
          <mxGeometry x="170" y="518" width="40" height="30" as="geometry" />
        </mxCell>
        <mxCell id="jkxrizxsw4gYprJsLhwS-14" value="1s" style="text;html=1;align=center;verticalAlign=middle;resizable=0;points=[];autosize=1;strokeColor=none;fillColor=none;" vertex="1" parent="1">
          <mxGeometry x="290" y="518" width="40" height="30" as="geometry" />
        </mxCell>
        <mxCell id="jkxrizxsw4gYprJsLhwS-15" value="2s" style="text;html=1;align=center;verticalAlign=middle;resizable=0;points=[];autosize=1;strokeColor=none;fillColor=none;" vertex="1" parent="1">
          <mxGeometry x="410" y="518" width="40" height="30" as="geometry" />
        </mxCell>
        <mxCell id="jkxrizxsw4gYprJsLhwS-16" value="3s" style="text;html=1;align=center;verticalAlign=middle;resizable=0;points=[];autosize=1;strokeColor=none;fillColor=none;" vertex="1" parent="1">
          <mxGeometry x="530" y="518" width="40" height="30" as="geometry" />
        </mxCell>
        <mxCell id="jkxrizxsw4gYprJsLhwS-17" value="4s" style="text;html=1;align=center;verticalAlign=middle;resizable=0;points=[];autosize=1;strokeColor=none;fillColor=none;" vertex="1" parent="1">
          <mxGeometry x="650" y="518" width="40" height="30" as="geometry" />
        </mxCell>
        <mxCell id="jkxrizxsw4gYprJsLhwS-18" value="5s" style="text;html=1;align=center;verticalAlign=middle;resizable=0;points=[];autosize=1;strokeColor=none;fillColor=none;" vertex="1" parent="1">
          <mxGeometry x="770" y="518" width="40" height="30" as="geometry" />
        </mxCell>
        <mxCell id="jkxrizxsw4gYprJsLhwS-19" value="6s" style="text;html=1;align=center;verticalAlign=middle;resizable=0;points=[];autosize=1;strokeColor=none;fillColor=none;" vertex="1" parent="1">
          <mxGeometry x="890" y="518" width="40" height="30" as="geometry" />
        </mxCell>
        <mxCell id="jkxrizxsw4gYprJsLhwS-22" value="" style="endArrow=none;html=1;rounded=0;" edge="1" parent="1">
          <mxGeometry width="50" height="50" relative="1" as="geometry">
            <mxPoint x="320" y="528" as="sourcePoint" />
            <mxPoint x="320" y="518" as="targetPoint" />
          </mxGeometry>
        </mxCell>
        <mxCell id="jkxrizxsw4gYprJsLhwS-23" value="" style="endArrow=none;html=1;rounded=0;" edge="1" parent="1">
          <mxGeometry width="50" height="50" relative="1" as="geometry">
            <mxPoint x="440" y="528" as="sourcePoint" />
            <mxPoint x="440" y="518" as="targetPoint" />
          </mxGeometry>
        </mxCell>
        <mxCell id="jkxrizxsw4gYprJsLhwS-24" value="" style="endArrow=none;html=1;rounded=0;" edge="1" parent="1">
          <mxGeometry width="50" height="50" relative="1" as="geometry">
            <mxPoint x="800" y="528" as="sourcePoint" />
            <mxPoint x="800" y="518" as="targetPoint" />
          </mxGeometry>
        </mxCell>
        <mxCell id="jkxrizxsw4gYprJsLhwS-25" value="" style="endArrow=none;html=1;rounded=0;" edge="1" parent="1">
          <mxGeometry width="50" height="50" relative="1" as="geometry">
            <mxPoint x="680" y="528" as="sourcePoint" />
            <mxPoint x="680" y="518" as="targetPoint" />
          </mxGeometry>
        </mxCell>
        <mxCell id="jkxrizxsw4gYprJsLhwS-26" value="" style="endArrow=none;html=1;rounded=0;" edge="1" parent="1">
          <mxGeometry width="50" height="50" relative="1" as="geometry">
            <mxPoint x="560" y="528" as="sourcePoint" />
            <mxPoint x="560" y="518" as="targetPoint" />
          </mxGeometry>
        </mxCell>
        <mxCell id="jkxrizxsw4gYprJsLhwS-27" value="" style="endArrow=none;html=1;rounded=0;" edge="1" parent="1">
          <mxGeometry width="50" height="50" relative="1" as="geometry">
            <mxPoint x="920" y="528" as="sourcePoint" />
            <mxPoint x="920" y="518" as="targetPoint" />
          </mxGeometry>
        </mxCell>
        <mxCell id="jkxrizxsw4gYprJsLhwS-35" value="" style="endArrow=classic;html=1;rounded=0;" edge="1" parent="1">
          <mxGeometry relative="1" as="geometry">
            <mxPoint x="410" y="140" as="sourcePoint" />
            <mxPoint x="410" y="380" as="targetPoint" />
          </mxGeometry>
        </mxCell>
        <mxCell id="jkxrizxsw4gYprJsLhwS-36" value="Label" style="edgeLabel;resizable=0;html=1;;align=center;verticalAlign=middle;" connectable="0" vertex="1" parent="jkxrizxsw4gYprJsLhwS-35">
          <mxGeometry relative="1" as="geometry" />
        </mxCell>
        <mxCell id="jkxrizxsw4gYprJsLhwS-37" value="&lt;div&gt;Send Sensor Data&lt;/div&gt;" style="edgeLabel;html=1;align=center;verticalAlign=middle;resizable=0;points=[];" vertex="1" connectable="0" parent="jkxrizxsw4gYprJsLhwS-35">
          <mxGeometry x="0.0044" y="-4" relative="1" as="geometry">
            <mxPoint y="1" as="offset" />
          </mxGeometry>
        </mxCell>
        <mxCell id="jkxrizxsw4gYprJsLhwS-47" value="" style="endArrow=classic;html=1;rounded=0;" edge="1" parent="1">
          <mxGeometry relative="1" as="geometry">
            <mxPoint x="470" y="380" as="sourcePoint" />
            <mxPoint x="470" y="300" as="targetPoint" />
          </mxGeometry>
        </mxCell>
        <mxCell id="jkxrizxsw4gYprJsLhwS-48" value="&lt;div&gt;Receive Sensor Data&lt;/div&gt;" style="edgeLabel;resizable=0;html=1;;align=center;verticalAlign=middle;" connectable="0" vertex="1" parent="jkxrizxsw4gYprJsLhwS-47">
          <mxGeometry relative="1" as="geometry" />
        </mxCell>
        <mxCell id="jkxrizxsw4gYprJsLhwS-51" value="" style="endArrow=classic;html=1;rounded=0;" edge="1" parent="1">
          <mxGeometry relative="1" as="geometry">
            <mxPoint x="540" y="220" as="sourcePoint" />
            <mxPoint x="540" y="460" as="targetPoint" />
          </mxGeometry>
        </mxCell>
        <mxCell id="jkxrizxsw4gYprJsLhwS-52" value="&lt;div&gt;Send LED 1 Command (ON)&lt;/div&gt;" style="edgeLabel;resizable=0;html=1;;align=center;verticalAlign=middle;" connectable="0" vertex="1" parent="jkxrizxsw4gYprJsLhwS-51">
          <mxGeometry relative="1" as="geometry">
            <mxPoint y="-110" as="offset" />
          </mxGeometry>
        </mxCell>
        <mxCell id="jkxrizxsw4gYprJsLhwS-55" value="" style="endArrow=classic;html=1;rounded=0;" edge="1" parent="1">
          <mxGeometry relative="1" as="geometry">
            <mxPoint x="580" y="460" as="sourcePoint" />
            <mxPoint x="580" y="300" as="targetPoint" />
          </mxGeometry>
        </mxCell>
        <mxCell id="jkxrizxsw4gYprJsLhwS-56" value="&lt;div&gt;Receive LED Command&lt;/div&gt;" style="edgeLabel;resizable=0;html=1;;align=center;verticalAlign=middle;" connectable="0" vertex="1" parent="jkxrizxsw4gYprJsLhwS-55">
          <mxGeometry relative="1" as="geometry">
            <mxPoint y="10" as="offset" />
          </mxGeometry>
        </mxCell>
        <mxCell id="jkxrizxsw4gYprJsLhwS-58" value="" style="endArrow=classic;html=1;rounded=0;" edge="1" parent="1">
          <mxGeometry relative="1" as="geometry">
            <mxPoint x="768.89" y="140" as="sourcePoint" />
            <mxPoint x="768.89" y="380" as="targetPoint" />
          </mxGeometry>
        </mxCell>
        <mxCell id="jkxrizxsw4gYprJsLhwS-59" value="Label" style="edgeLabel;resizable=0;html=1;;align=center;verticalAlign=middle;" connectable="0" vertex="1" parent="jkxrizxsw4gYprJsLhwS-58">
          <mxGeometry relative="1" as="geometry" />
        </mxCell>
        <mxCell id="jkxrizxsw4gYprJsLhwS-60" value="&lt;div&gt;Send Sensor Data&lt;/div&gt;" style="edgeLabel;html=1;align=center;verticalAlign=middle;resizable=0;points=[];" vertex="1" connectable="0" parent="jkxrizxsw4gYprJsLhwS-58">
          <mxGeometry x="0.0044" y="-4" relative="1" as="geometry">
            <mxPoint y="1" as="offset" />
          </mxGeometry>
        </mxCell>
        <mxCell id="jkxrizxsw4gYprJsLhwS-62" value="" style="endArrow=classic;html=1;rounded=0;" edge="1" parent="1">
          <mxGeometry relative="1" as="geometry">
            <mxPoint x="830" y="380" as="sourcePoint" />
            <mxPoint x="830" y="300" as="targetPoint" />
          </mxGeometry>
        </mxCell>
        <mxCell id="jkxrizxsw4gYprJsLhwS-63" value="&lt;div&gt;Receive Sensor Data&lt;/div&gt;" style="edgeLabel;resizable=0;html=1;;align=center;verticalAlign=middle;" connectable="0" vertex="1" parent="jkxrizxsw4gYprJsLhwS-62">
          <mxGeometry relative="1" as="geometry" />
        </mxCell>
        <mxCell id="jkxrizxsw4gYprJsLhwS-64" value="" style="endArrow=classic;html=1;rounded=0;" edge="1" parent="1">
          <mxGeometry relative="1" as="geometry">
            <mxPoint x="900" y="220" as="sourcePoint" />
            <mxPoint x="900" y="460" as="targetPoint" />
          </mxGeometry>
        </mxCell>
        <mxCell id="jkxrizxsw4gYprJsLhwS-65" value="&lt;div&gt;Send LED 2 Command (ON)&lt;/div&gt;" style="edgeLabel;resizable=0;html=1;;align=center;verticalAlign=middle;" connectable="0" vertex="1" parent="jkxrizxsw4gYprJsLhwS-64">
          <mxGeometry relative="1" as="geometry">
            <mxPoint y="-110" as="offset" />
          </mxGeometry>
        </mxCell>
        <mxCell id="jkxrizxsw4gYprJsLhwS-66" value="" style="endArrow=classic;html=1;rounded=0;" edge="1" parent="1">
          <mxGeometry relative="1" as="geometry">
            <mxPoint x="940" y="460" as="sourcePoint" />
            <mxPoint x="940" y="300" as="targetPoint" />
          </mxGeometry>
        </mxCell>
        <mxCell id="jkxrizxsw4gYprJsLhwS-67" value="&lt;div&gt;Receive LED Command&lt;/div&gt;" style="edgeLabel;resizable=0;html=1;;align=center;verticalAlign=middle;" connectable="0" vertex="1" parent="jkxrizxsw4gYprJsLhwS-66">
          <mxGeometry relative="1" as="geometry">
            <mxPoint y="10" as="offset" />
          </mxGeometry>
        </mxCell>
        <mxCell id="jkxrizxsw4gYprJsLhwS-69" value="" style="endArrow=none;dashed=1;html=1;dashPattern=1 3;strokeWidth=2;rounded=0;" edge="1" parent="1">
          <mxGeometry width="50" height="50" relative="1" as="geometry">
            <mxPoint x="200" y="140" as="sourcePoint" />
            <mxPoint x="1040" y="140" as="targetPoint" />
          </mxGeometry>
        </mxCell>
        <mxCell id="jkxrizxsw4gYprJsLhwS-70" value="" style="endArrow=none;dashed=1;html=1;dashPattern=1 3;strokeWidth=2;rounded=0;" edge="1" parent="1">
          <mxGeometry width="50" height="50" relative="1" as="geometry">
            <mxPoint x="200" y="220" as="sourcePoint" />
            <mxPoint x="1040" y="220" as="targetPoint" />
          </mxGeometry>
        </mxCell>
        <mxCell id="jkxrizxsw4gYprJsLhwS-71" value="" style="endArrow=none;dashed=1;html=1;dashPattern=1 3;strokeWidth=2;rounded=0;" edge="1" parent="1" source="jkxrizxsw4gYprJsLhwS-92">
          <mxGeometry width="50" height="50" relative="1" as="geometry">
            <mxPoint x="200" y="300" as="sourcePoint" />
            <mxPoint x="1040" y="300" as="targetPoint" />
          </mxGeometry>
        </mxCell>
        <mxCell id="jkxrizxsw4gYprJsLhwS-72" value="" style="endArrow=none;dashed=1;html=1;dashPattern=1 3;strokeWidth=2;rounded=0;" edge="1" parent="1">
          <mxGeometry width="50" height="50" relative="1" as="geometry">
            <mxPoint x="200" y="379.44" as="sourcePoint" />
            <mxPoint x="1040" y="379.44" as="targetPoint" />
          </mxGeometry>
        </mxCell>
        <mxCell id="jkxrizxsw4gYprJsLhwS-73" value="" style="endArrow=none;dashed=1;html=1;dashPattern=1 3;strokeWidth=2;rounded=0;" edge="1" parent="1">
          <mxGeometry width="50" height="50" relative="1" as="geometry">
            <mxPoint x="200" y="459.44" as="sourcePoint" />
            <mxPoint x="1040" y="459.44" as="targetPoint" />
          </mxGeometry>
        </mxCell>
        <mxCell id="jkxrizxsw4gYprJsLhwS-77" value="" style="endArrow=none;html=1;rounded=0;" edge="1" parent="1">
          <mxGeometry width="50" height="50" relative="1" as="geometry">
            <mxPoint x="410" y="380" as="sourcePoint" />
            <mxPoint x="470" y="380" as="targetPoint" />
          </mxGeometry>
        </mxCell>
        <mxCell id="jkxrizxsw4gYprJsLhwS-79" value="" style="endArrow=none;html=1;rounded=0;" edge="1" parent="1">
          <mxGeometry width="50" height="50" relative="1" as="geometry">
            <mxPoint x="540" y="460" as="sourcePoint" />
            <mxPoint x="580" y="460" as="targetPoint" />
          </mxGeometry>
        </mxCell>
        <mxCell id="jkxrizxsw4gYprJsLhwS-83" value="" style="endArrow=none;html=1;rounded=0;" edge="1" parent="1">
          <mxGeometry width="50" height="50" relative="1" as="geometry">
            <mxPoint x="770" y="380" as="sourcePoint" />
            <mxPoint x="830" y="380" as="targetPoint" />
          </mxGeometry>
        </mxCell>
        <mxCell id="jkxrizxsw4gYprJsLhwS-85" value="" style="endArrow=classic;html=1;rounded=0;" edge="1" parent="1">
          <mxGeometry width="50" height="50" relative="1" as="geometry">
            <mxPoint x="900" y="460" as="sourcePoint" />
            <mxPoint x="940" y="460" as="targetPoint" />
          </mxGeometry>
        </mxCell>
        <mxCell id="jkxrizxsw4gYprJsLhwS-87" value="" style="endArrow=none;dashed=1;html=1;dashPattern=1 3;strokeWidth=2;rounded=0;" edge="1" parent="1" target="jkxrizxsw4gYprJsLhwS-86">
          <mxGeometry width="50" height="50" relative="1" as="geometry">
            <mxPoint x="200" y="300" as="sourcePoint" />
            <mxPoint x="1040" y="300" as="targetPoint" />
          </mxGeometry>
        </mxCell>
        <mxCell id="jkxrizxsw4gYprJsLhwS-86" value="&lt;div&gt;Display Data&lt;/div&gt;" style="text;whiteSpace=wrap;html=1;" vertex="1" parent="1">
          <mxGeometry x="440" y="280" width="100" height="40" as="geometry" />
        </mxCell>
        <mxCell id="jkxrizxsw4gYprJsLhwS-89" value="" style="endArrow=none;dashed=1;html=1;dashPattern=1 3;strokeWidth=2;rounded=0;" edge="1" parent="1" source="jkxrizxsw4gYprJsLhwS-90" target="jkxrizxsw4gYprJsLhwS-88">
          <mxGeometry width="50" height="50" relative="1" as="geometry">
            <mxPoint x="540" y="300" as="sourcePoint" />
            <mxPoint x="1040" y="300" as="targetPoint" />
          </mxGeometry>
        </mxCell>
        <mxCell id="jkxrizxsw4gYprJsLhwS-88" value="&lt;div&gt;Display Data&lt;/div&gt;" style="text;whiteSpace=wrap;html=1;" vertex="1" parent="1">
          <mxGeometry x="800" y="280" width="100" height="40" as="geometry" />
        </mxCell>
        <mxCell id="jkxrizxsw4gYprJsLhwS-91" value="" style="endArrow=none;dashed=1;html=1;dashPattern=1 3;strokeWidth=2;rounded=0;" edge="1" parent="1" source="jkxrizxsw4gYprJsLhwS-86" target="jkxrizxsw4gYprJsLhwS-90">
          <mxGeometry width="50" height="50" relative="1" as="geometry">
            <mxPoint x="540" y="300" as="sourcePoint" />
            <mxPoint x="800" y="300" as="targetPoint" />
          </mxGeometry>
        </mxCell>
        <mxCell id="jkxrizxsw4gYprJsLhwS-90" value="&lt;div&gt;Turn On LED 1&lt;/div&gt;" style="text;whiteSpace=wrap;html=1;" vertex="1" parent="1">
          <mxGeometry x="550" y="280" width="110" height="40" as="geometry" />
        </mxCell>
        <mxCell id="jkxrizxsw4gYprJsLhwS-93" value="" style="endArrow=none;dashed=1;html=1;dashPattern=1 3;strokeWidth=2;rounded=0;" edge="1" parent="1" source="jkxrizxsw4gYprJsLhwS-88" target="jkxrizxsw4gYprJsLhwS-92">
          <mxGeometry width="50" height="50" relative="1" as="geometry">
            <mxPoint x="900" y="300" as="sourcePoint" />
            <mxPoint x="1040" y="300" as="targetPoint" />
          </mxGeometry>
        </mxCell>
        <mxCell id="jkxrizxsw4gYprJsLhwS-92" value="&lt;div&gt;Turn On LED 2&lt;/div&gt;" style="text;whiteSpace=wrap;html=1;" vertex="1" parent="1">
          <mxGeometry x="910" y="280" width="110" height="40" as="geometry" />
        </mxCell>
        <mxCell id="jkxrizxsw4gYprJsLhwS-94" value="&lt;div&gt;(1)(2)(3)(4): Dữ liệu từ cảm biến và lệnh từ nút nhấn được &lt;br&gt;truyền qua queue giữa các task.&lt;/div&gt;" style="text;html=1;align=center;verticalAlign=middle;resizable=0;points=[];autosize=1;strokeColor=none;fillColor=none;" vertex="1" parent="1">
          <mxGeometry x="40" y="570" width="330" height="40" as="geometry" />
        </mxCell>
        <mxCell id="jkxrizxsw4gYprJsLhwS-98" value="(1)" style="text;html=1;align=center;verticalAlign=middle;whiteSpace=wrap;rounded=0;" vertex="1" parent="1">
          <mxGeometry x="410" y="380" width="60" height="30" as="geometry" />
        </mxCell>
        <mxCell id="jkxrizxsw4gYprJsLhwS-99" value="(2)" style="text;html=1;align=center;verticalAlign=middle;whiteSpace=wrap;rounded=0;" vertex="1" parent="1">
          <mxGeometry x="530" y="460" width="60" height="30" as="geometry" />
        </mxCell>
        <mxCell id="jkxrizxsw4gYprJsLhwS-100" value="(3)" style="text;html=1;align=center;verticalAlign=middle;whiteSpace=wrap;rounded=0;" vertex="1" parent="1">
          <mxGeometry x="770" y="380" width="60" height="30" as="geometry" />
        </mxCell>
        <mxCell id="jkxrizxsw4gYprJsLhwS-101" value="(4)" style="text;html=1;align=center;verticalAlign=middle;whiteSpace=wrap;rounded=0;" vertex="1" parent="1">
          <mxGeometry x="890" y="460" width="60" height="30" as="geometry" />
        </mxCell>
      </root>
    </mxGraphModel>
  </diagram>
</mxfile>
